<svg xmlns="http://www.w3.org/2000/svg" xmlns:xlink="http://www.w3.org/1999/xlink" id="processonSvg1000" viewBox="30.0 323.4999923706053 1063.0 828.5975670126747" width="1063.0" height="828.5975670126747"><defs id="ProcessOnDefs1001"><marker id="ProcessOnMarker1080" markerUnits="userSpaceOnUse" orient="auto" markerWidth="16.23606797749979" markerHeight="10.550836550532098" viewBox="-1.0 -1.3763819204711736 16.23606797749979 10.550836550532098" refX="-1.0" refY="3.8990363547948754"><path id="ProcessOnPath1081" d="M12.0 3.8990363547948754L0.0 7.798072709589751V0.0Z" stroke="#323232" stroke-width="2.0" fill="#323232" transform="matrix(1.0,0.0,0.0,1.0,0.0,0.0)"/></marker><marker id="ProcessOnMarker1084" markerUnits="userSpaceOnUse" orient="auto" markerWidth="16.23606797749979" markerHeight="10.550836550532098" viewBox="-1.0 -1.3763819204711736 16.23606797749979 10.550836550532098" refX="-1.0" refY="3.8990363547948754"><path id="ProcessOnPath1085" d="M12.0 3.8990363547948754L0.0 7.798072709589751V0.0Z" stroke="#323232" stroke-width="2.0" fill="#323232" transform="matrix(1.0,0.0,0.0,1.0,0.0,0.0)"/></marker><marker id="ProcessOnMarker1088" markerUnits="userSpaceOnUse" orient="auto" markerWidth="16.23606797749979" markerHeight="10.550836550532098" viewBox="-1.0 -1.3763819204711736 16.23606797749979 10.550836550532098" refX="-1.0" refY="3.8990363547948754"><path id="ProcessOnPath1089" d="M12.0 3.8990363547948754L0.0 7.798072709589751V0.0Z" stroke="#323232" stroke-width="2.0" fill="#323232" transform="matrix(1.0,0.0,0.0,1.0,0.0,0.0)"/></marker><marker id="ProcessOnMarker1096" markerUnits="userSpaceOnUse" orient="auto" markerWidth="16.23606797749979" markerHeight="10.550836550532098" viewBox="-1.0 -1.3763819204711736 16.23606797749979 10.550836550532098" refX="-1.0" refY="3.8990363547948754"><path id="ProcessOnPath1097" d="M12.0 3.8990363547948754L0.0 7.798072709589751V0.0Z" stroke="#323232" stroke-width="2.0" fill="#323232" transform="matrix(1.0,0.0,0.0,1.0,0.0,0.0)"/></marker><marker id="ProcessOnMarker1100" markerUnits="userSpaceOnUse" orient="auto" markerWidth="16.23606797749979" markerHeight="10.550836550532098" viewBox="-1.0 -1.3763819204711736 16.23606797749979 10.550836550532098" refX="-1.0" refY="3.8990363547948754"><path id="ProcessOnPath1101" d="M12.0 3.8990363547948754L0.0 7.798072709589751V0.0Z" stroke="#323232" stroke-width="2.0" fill="#323232" transform="matrix(1.0,0.0,0.0,1.0,0.0,0.0)"/></marker><marker id="ProcessOnMarker1104" markerUnits="userSpaceOnUse" orient="auto" markerWidth="16.23606797749979" markerHeight="10.550836550532098" viewBox="-1.0 -1.3763819204711736 16.23606797749979 10.550836550532098" refX="-1.0" refY="3.8990363547948754"><path id="ProcessOnPath1105" d="M12.0 3.8990363547948754L0.0 7.798072709589751V0.0Z" stroke="#323232" stroke-width="2.0" fill="#323232" transform="matrix(1.0,0.0,0.0,1.0,0.0,0.0)"/></marker><marker id="ProcessOnMarker1112" markerUnits="userSpaceOnUse" orient="auto" markerWidth="16.23606797749979" markerHeight="10.550836550532098" viewBox="-1.0 -1.3763819204711736 16.23606797749979 10.550836550532098" refX="15.23606797749979" refY="3.8990363547948754"><path id="ProcessOnPath1113" d="M12.0 3.8990363547948754L0.0 7.798072709589751V0.0Z" stroke="#323232" stroke-width="2.0" fill="#323232" transform="matrix(-1.0,1.2246467991473532E-16,-1.2246467991473532E-16,-1.0,14.23606797749979,7.798072709589751)"/></marker><marker id="ProcessOnMarker1114" markerUnits="userSpaceOnUse" orient="auto" markerWidth="16.23606797749979" markerHeight="10.550836550532098" viewBox="-1.0 -1.3763819204711736 16.23606797749979 10.550836550532098" refX="-1.0" refY="3.8990363547948754"><path id="ProcessOnPath1115" d="M12.0 3.8990363547948754L0.0 7.798072709589751V0.0Z" stroke="#323232" stroke-width="2.0" fill="#323232" transform="matrix(1.0,0.0,0.0,1.0,0.0,0.0)"/></marker><marker id="ProcessOnMarker1147" markerUnits="userSpaceOnUse" orient="auto" markerWidth="16.23606797749979" markerHeight="10.550836550532098" viewBox="-1.0 -1.3763819204711736 16.23606797749979 10.550836550532098" refX="15.23606797749979" refY="3.8990363547948754"><path id="ProcessOnPath1148" d="M12.0 3.8990363547948754L0.0 7.798072709589751V0.0Z" stroke="#323232" stroke-width="2.0" fill="#323232" transform="matrix(-1.0,1.2246467991473532E-16,-1.2246467991473532E-16,-1.0,14.23606797749979,7.798072709589751)"/></marker><marker id="ProcessOnMarker1149" markerUnits="userSpaceOnUse" orient="auto" markerWidth="16.23606797749979" markerHeight="10.550836550532098" viewBox="-1.0 -1.3763819204711736 16.23606797749979 10.550836550532098" refX="-1.0" refY="3.8990363547948754"><path id="ProcessOnPath1150" d="M12.0 3.8990363547948754L0.0 7.798072709589751V0.0Z" stroke="#323232" stroke-width="2.0" fill="#323232" transform="matrix(1.0,0.0,0.0,1.0,0.0,0.0)"/></marker><marker id="ProcessOnMarker1173" markerUnits="userSpaceOnUse" orient="auto" markerWidth="16.23606797749979" markerHeight="10.550836550532098" viewBox="-1.0 -1.3763819204711736 16.23606797749979 10.550836550532098" refX="15.23606797749979" refY="3.8990363547948754"><path id="ProcessOnPath1174" d="M12.0 3.8990363547948754L0.0 7.798072709589751V0.0Z" stroke="#323232" stroke-width="2.0" fill="#323232" transform="matrix(-1.0,1.2246467991473532E-16,-1.2246467991473532E-16,-1.0,14.23606797749979,7.798072709589751)"/></marker><marker id="ProcessOnMarker1175" markerUnits="userSpaceOnUse" orient="auto" markerWidth="16.23606797749979" markerHeight="10.550836550532098" viewBox="-1.0 -1.3763819204711736 16.23606797749979 10.550836550532098" refX="-1.0" refY="3.8990363547948754"><path id="ProcessOnPath1176" d="M12.0 3.8990363547948754L0.0 7.798072709589751V0.0Z" stroke="#323232" stroke-width="2.0" fill="#323232" transform="matrix(1.0,0.0,0.0,1.0,0.0,0.0)"/></marker></defs><g id="ProcessOnG1002"><path id="ProcessOnPath1003" d="M30.0 323.4999923706053H1093.0V1152.09755938328H30.0V323.49999237060524Z" fill="none"/><g id="ProcessOnG1004"><g id="ProcessOnG1005" transform="matrix(1.0,0.0,0.0,1.0,279.0,961.0)" opacity="1.0"><path id="ProcessOnPath1006" d="M0.0 4.0Q0.0 0.0 4.0 0.0L662.0012948479666 0.0Q666.0012948479666 0.0 666.0012948479666 4.0L666.0012948479666 147.26440239577232Q666.0012948479666 151.26440239577232 662.0012948479666 151.26440239577232L4.0 151.26440239577232Q0.0 151.26440239577232 0.0 147.26440239577232Z" stroke="#323232" stroke-width="2.0" stroke-dasharray="none" opacity="1.0" fill="#ffffff"/></g><g id="ProcessOnG1007" transform="matrix(1.0,0.0,0.0,1.0,165.22345913824256,941.2117227977903)" opacity="1.0"><path id="ProcessOnPath1008" d="M0.0 11.02243989264897L779.7778357097241 11.02243989264897" stroke="#888888" stroke-width="1.0" stroke-dasharray="5.0 2.0" opacity="1.0" fill="none"/><path id="ProcessOnPath1009" d="M0.0 0.0L779.7778357097241 0.0L779.7778357097241 22.04487978529794L0.0 22.04487978529794Z" stroke="none" stroke-width="0.0" stroke-dasharray="0.0 0.0" opacity="1.0" fill="none"/></g><g id="ProcessOnG1010" transform="matrix(1.0,0.0,0.0,1.0,165.22345913824256,717.0112353456352)" opacity="1.0"><path id="ProcessOnPath1011" d="M0.0 11.02243989264897L779.7778357097241 11.02243989264897" stroke="#888888" stroke-width="1.0" stroke-dasharray="5.0 2.0" opacity="1.0" fill="none"/><path id="ProcessOnPath1012" d="M0.0 0.0L779.7778357097241 0.0L779.7778357097241 22.04487978529794L0.0 22.04487978529794Z" stroke="none" stroke-width="0.0" stroke-dasharray="0.0 0.0" opacity="1.0" fill="none"/></g><g id="ProcessOnG1013" transform="matrix(1.0,0.0,0.0,1.0,165.22345913824256,395.75263903126637)" opacity="1.0"><path id="ProcessOnPath1014" d="M0.0 11.02243989264897L779.7778357097241 11.02243989264897" stroke="#888888" stroke-width="1.0" stroke-dasharray="5.0 2.0" opacity="1.0" fill="none"/><path id="ProcessOnPath1015" d="M0.0 0.0L779.7778357097241 0.0L779.7778357097241 22.04487978529794L0.0 22.04487978529794Z" stroke="none" stroke-width="0.0" stroke-dasharray="0.0 0.0" opacity="1.0" fill="none"/></g><g id="ProcessOnG1016" transform="matrix(1.0,0.0,0.0,1.0,290.3004717445158,343.4999923706053)" opacity="1.0"><path id="ProcessOnPath1017" d="M0.0 4.0Q0.0 0.0 4.0 0.0L620.2122160413912 0.0Q624.2122160413912 0.0 624.2122160413912 4.0L624.2122160413912 48.00826851217132Q624.2122160413912 52.00826851217132 620.2122160413912 52.00826851217132L4.0 52.00826851217132Q0.0 52.00826851217132 0.0 48.00826851217132Z" stroke="#323232" stroke-width="2.0" stroke-dasharray="none" opacity="1.0" fill="#99ffcc"/></g><g id="ProcessOnG1018" transform="matrix(1.0,0.0,0.0,1.0,294.0,800.79283395024)" opacity="1.0"><path id="ProcessOnPath1019" d="M0.0 4.0Q0.0 0.0 4.0 0.0L290.0 0.0Q294.0 0.0 294.0 4.0L294.0 107.15904319980837Q294.0 111.15904319980837 290.0 111.15904319980837L4.0 111.15904319980837Q0.0 111.15904319980837 0.0 107.15904319980837Z" stroke="#323232" stroke-width="2.0" stroke-dasharray="none" opacity="1.0" fill="#99ff99"/></g><g id="ProcessOnG1020" transform="matrix(1.0,0.0,0.0,1.0,169.22345913824256,833.9841500090533)" opacity="1.0"><path id="ProcessOnPath1021" d="M0.0 0.0L104.92625847754515 0.0L104.92625847754515 44.77641108218172L0.0 44.77641108218172Z" stroke="none" stroke-width="0.0" stroke-dasharray="none" opacity="1.0" fill="none"/><g id="ProcessOnG1022" transform="matrix(1.0,0.0,0.0,1.0,0.0,14.263205541090858)"><text id="ProcessOnText1023" fill="#000000" font-size="13" x="51.463129238772574" y="13.325" font-family="微软雅黑" font-weight="normal" font-style="normal" text-decoration="none" family="微软雅黑" text-anchor="middle" size="13">服务器</text></g></g><g id="ProcessOnG1024" transform="matrix(1.0,0.0,0.0,1.0,290.3004717445158,506.32290996136885)" opacity="1.0"><path id="ProcessOnPath1025" d="M0.0 4.0Q0.0 0.0 4.0 0.0L297.5233084507445 0.0Q301.5233084507445 0.0 301.5233084507445 4.0L301.5233084507445 201.67709003863115Q301.5233084507445 205.67709003863115 297.5233084507445 205.67709003863115L4.0 205.67709003863115Q0.0 205.67709003863115 0.0 201.67709003863115Z" stroke="#323232" stroke-width="2.0" stroke-dasharray="none" opacity="1.0" fill="#99ff99"/></g><g id="ProcessOnG1026" transform="matrix(1.0,0.0,0.0,1.0,300.0,525.8596274434947)" opacity="1.0"><path id="ProcessOnPath1027" d="M0.0 0.0L280.3254950753418 0.0L280.3254950753418 32.24179972263096L0.0 32.24179972263096Z" stroke="#323232" stroke-width="2.0" stroke-dasharray="none" opacity="1.0" fill="#ffffff"/><g id="ProcessOnG1028" transform="matrix(1.0,0.0,0.0,1.0,10.0,7.995899861315479)"><text id="ProcessOnText1029" fill="#000000" font-size="13" x="129.1627475376709" y="13.325" font-family="微软雅黑" font-weight="normal" font-style="normal" text-decoration="none" family="微软雅黑" text-anchor="middle" size="13">用户管理(登录注册)</text></g></g><g id="ProcessOnG1030" transform="matrix(1.0,0.0,0.0,1.0,639.2933287712272,530.4732952228678)" opacity="1.0"><path id="ProcessOnPath1031" d="M0.0 4.0Q0.0 0.0 4.0 0.0L277.21935901467987 0.0Q281.21935901467987 0.0 281.21935901467987 4.0L281.21935901467987 153.3763195156331Q281.21935901467987 157.3763195156331 277.21935901467987 157.3763195156331L4.0 157.3763195156331Q0.0 157.3763195156331 0.0 153.3763195156331Z" stroke="#323232" stroke-width="2.0" stroke-dasharray="none" opacity="1.0" fill="#ccff99"/></g><g id="ProcessOnG1032" transform="matrix(1.0,0.0,0.0,1.0,376.46598407880435,857.0)" opacity="1.0"><path id="ProcessOnPath1033" d="M0.0 0.0L127.06803184239128 0.0L127.06803184239128 32.24179972263096L0.0 32.24179972263096Z" stroke="#323232" stroke-width="2.0" stroke-dasharray="none" opacity="1.0" fill="#ffffff"/><g id="ProcessOnG1034" transform="matrix(1.0,0.0,0.0,1.0,10.0,7.995899861315479)"><text id="ProcessOnText1035" fill="#000000" font-size="13" x="52.53401592119564" y="13.325" font-family="微软雅黑" font-weight="normal" font-style="normal" text-decoration="none" family="微软雅黑" text-anchor="middle" size="13">etc...</text></g></g><g id="ProcessOnG1036" transform="matrix(1.0,0.0,0.0,1.0,300.0,625.368732845901)" opacity="1.0"><path id="ProcessOnPath1037" d="M0.0 0.0L280.0 0.0L280.0 32.24179972263096L0.0 32.24179972263096Z" stroke="#323232" stroke-width="2.0" stroke-dasharray="none" opacity="1.0" fill="#ffffff"/><g id="ProcessOnG1038" transform="matrix(1.0,0.0,0.0,1.0,10.0,7.995899861315479)"><text id="ProcessOnText1039" fill="#000000" font-size="13" x="129.0" y="13.325" font-family="微软雅黑" font-weight="normal" font-style="normal" text-decoration="none" family="微软雅黑" text-anchor="middle" size="13">添加上传、下载任务</text></g></g><g id="ProcessOnG1040" transform="matrix(1.0,0.0,0.0,1.0,165.22345913824256,347.11592108560006)" opacity="1.0"><path id="ProcessOnPath1041" d="M0.0 0.0L104.92625847754515 0.0L104.92625847754515 44.77641108218172L0.0 44.77641108218172Z" stroke="none" stroke-width="0.0" stroke-dasharray="none" opacity="1.0" fill="none"/><g id="ProcessOnG1042" transform="matrix(1.0,0.0,0.0,1.0,0.0,14.263205541090858)"><text id="ProcessOnText1043" fill="#000000" font-size="13" x="51.463129238772574" y="13.325" font-family="微软雅黑" font-weight="normal" font-style="normal" text-decoration="none" family="微软雅黑" text-anchor="middle" size="13">前端UI</text></g></g><g id="ProcessOnG1044" transform="matrix(1.0,0.0,0.0,1.0,760.3613606136184,353.0426304287895)" opacity="1.0"><path id="ProcessOnPath1045" d="M0.0 0.0L108.98302041368201 0.0L108.98302041368201 32.92299239580273L0.0 32.92299239580273Z" stroke="#323232" stroke-width="2.0" stroke-dasharray="none" opacity="1.0" fill="#ffffff"/><g id="ProcessOnG1046" transform="matrix(1.0,0.0,0.0,1.0,10.0,8.336496197901365)"><text id="ProcessOnText1047" fill="#000000" font-size="13" x="43.491510206841006" y="13.325" font-family="微软雅黑" font-weight="normal" font-style="normal" text-decoration="none" family="微软雅黑" text-anchor="middle" size="13">JavaScript</text></g></g><g id="ProcessOnG1048" transform="matrix(1.0,0.0,0.0,1.0,539.3961128000545,353.0426304287895)" opacity="1.0"><path id="ProcessOnPath1049" d="M0.0 0.0L108.98302041368201 0.0L108.98302041368201 32.92299239580273L0.0 32.92299239580273Z" stroke="#323232" stroke-width="2.0" stroke-dasharray="none" opacity="1.0" fill="#ffffff"/><g id="ProcessOnG1050" transform="matrix(1.0,0.0,0.0,1.0,10.0,8.336496197901365)"><text id="ProcessOnText1051" fill="#000000" font-size="13" x="43.491510206841006" y="13.325" font-family="微软雅黑" font-weight="normal" font-style="normal" text-decoration="none" family="微软雅黑" text-anchor="middle" size="13">CSS</text></g></g><g id="ProcessOnG1052" transform="matrix(1.0,0.0,0.0,1.0,345.22229297912264,353.04263042878955)" opacity="1.0"><path id="ProcessOnPath1053" d="M0.0 0.0L108.98302041368201 0.0L108.98302041368201 32.92299239580273L0.0 32.92299239580273Z" stroke="#323232" stroke-width="2.0" stroke-dasharray="none" opacity="1.0" fill="#ffffff"/><g id="ProcessOnG1054" transform="matrix(1.0,0.0,0.0,1.0,10.0,8.336496197901365)"><text id="ProcessOnText1055" fill="#000000" font-size="13" x="43.491510206841006" y="13.325" font-family="微软雅黑" font-weight="normal" font-style="normal" text-decoration="none" family="微软雅黑" text-anchor="middle" size="13">QML</text></g></g><g id="ProcessOnG1056" transform="matrix(1.0,0.0,0.0,1.0,171.9987051520335,553.1495689552266)" opacity="1.0"><path id="ProcessOnPath1057" d="M0.0 0.0L104.92625847754515 0.0L104.92625847754515 44.77641108218172L0.0 44.77641108218172Z" stroke="none" stroke-width="0.0" stroke-dasharray="none" opacity="1.0" fill="none"/><g id="ProcessOnG1058" transform="matrix(1.0,0.0,0.0,1.0,0.0,14.263205541090858)"><text id="ProcessOnText1059" fill="#000000" font-size="13" x="51.463129238772574" y="13.325" font-family="微软雅黑" font-weight="normal" font-style="normal" text-decoration="none" family="微软雅黑" text-anchor="middle" size="13">客户端业务逻辑</text></g></g><g id="ProcessOnG1060" transform="matrix(1.0,0.0,0.0,1.0,290.3004717445158,424.1658782262179)" opacity="1.0"><path id="ProcessOnPath1061" d="M0.0 4.0Q0.0 0.0 4.0 0.0L620.2122160413912 0.0Q624.2122160413912 0.0 624.2122160413912 4.0L624.2122160413912 45.8341217737821Q624.2122160413912 49.8341217737821 620.2122160413912 49.8341217737821L4.0 49.8341217737821Q0.0 49.8341217737821 0.0 45.8341217737821Z" stroke="#323232" stroke-width="2.0" stroke-dasharray="none" opacity="1.0" fill="#ffcc99"/><g id="ProcessOnG1062" transform="matrix(1.0,0.0,0.0,1.0,10.0,16.79206088689105)"><text id="ProcessOnText1063" fill="#000000" font-size="13" x="301.1061080206956" y="13.325" font-family="微软雅黑" font-weight="normal" font-style="normal" text-decoration="none" family="微软雅黑" text-anchor="middle" size="13">C++/Qt5</text></g></g><g id="ProcessOnG1064" transform="matrix(1.0,0.0,0.0,1.0,642.5925748854354,800.79283395024)" opacity="1.0"><path id="ProcessOnPath1065" d="M0.0 4.0Q0.0 0.0 4.0 0.0L270.6208667862635 0.0Q274.6208667862635 0.0 274.6208667862635 4.0L274.6208667862635 107.15904319980837Q274.6208667862635 111.15904319980837 270.6208667862635 111.15904319980837L4.0 111.15904319980837Q0.0 111.15904319980837 0.0 107.15904319980837Z" stroke="#323232" stroke-width="2.0" stroke-dasharray="none" opacity="1.0" fill="#ff9999"/></g><g id="ProcessOnG1066" transform="matrix(1.0,0.0,0.0,1.0,716.3689923573714,558.1014271661256)" opacity="1.0"><path id="ProcessOnPath1067" d="M0.0 0.0L127.06803184239128 0.0L127.06803184239128 32.24179972263096L0.0 32.24179972263096Z" stroke="#323232" stroke-width="2.0" stroke-dasharray="none" opacity="1.0" fill="#ffffff"/><g id="ProcessOnG1068" transform="matrix(1.0,0.0,0.0,1.0,10.0,7.995899861315479)"><text id="ProcessOnText1069" fill="#000000" font-size="13" x="52.53401592119564" y="13.325" font-family="微软雅黑" font-weight="normal" font-style="normal" text-decoration="none" family="微软雅黑" text-anchor="middle" size="13">文件上传</text></g></g><g id="ProcessOnG1070" transform="matrix(1.0,0.0,0.0,1.0,300.0,575.5609297809547)" opacity="1.0"><path id="ProcessOnPath1071" d="M0.0 0.0L280.0 0.0L280.0 32.439070219045334L0.0 32.439070219045334Z" stroke="#323232" stroke-width="2.0" stroke-dasharray="none" opacity="1.0" fill="#ffffff"/><g id="ProcessOnG1072" transform="matrix(1.0,0.0,0.0,1.0,10.0,8.094535109522667)"><text id="ProcessOnText1073" fill="#000000" font-size="13" x="129.0" y="13.325" font-family="微软雅黑" font-weight="normal" font-style="normal" text-decoration="none" family="微软雅黑" text-anchor="middle" size="13">文件管理（查询，删除，移动，复制）</text></g></g><g id="ProcessOnG1074" transform="matrix(1.0,0.0,0.0,1.0,716.3689923573714,608.0)" opacity="1.0"><path id="ProcessOnPath1075" d="M0.0 0.0L127.06803184239128 0.0L127.06803184239128 32.24179972263096L0.0 32.24179972263096Z" stroke="#323232" stroke-width="2.0" stroke-dasharray="none" opacity="1.0" fill="#ffffff"/><g id="ProcessOnG1076" transform="matrix(1.0,0.0,0.0,1.0,10.0,7.995899861315479)"><text id="ProcessOnText1077" fill="#000000" font-size="13" x="52.53401592119564" y="13.325" font-family="微软雅黑" font-weight="normal" font-style="normal" text-decoration="none" family="微软雅黑" text-anchor="middle" size="13">文件下载</text></g></g><g id="ProcessOnG1078"><path id="ProcessOnPath1079" d="M602.4065797652114 395.5082608827766L602.4065797652114 409.83706955449725L602.4065797652114 409.83706955449725L602.4065797652114 410.83706955449725" stroke="#323232" stroke-width="2.0" stroke-dasharray="none" fill="none" marker-end="url(#ProcessOnMarker1080)"/></g><g id="ProcessOnG1082"><path id="ProcessOnPath1083" d="M441.0 473.0L441.0 489.6614549806844L441.06212596988803 489.6614549806844L441.06212596988803 491.0868419838691" stroke="#323232" stroke-width="2.0" stroke-dasharray="none" fill="none" marker-end="url(#ProcessOnMarker1084)"/></g><g id="ProcessOnG1086"><path id="ProcessOnPath1087" d="M591.8237801952603 609.1614549806844L615.5585544832437 609.1614549806844L615.5585544832437 609.1614549806844L624.0572607937273 609.1614549806844" stroke="#323232" stroke-width="2.0" stroke-dasharray="none" fill="none" marker-end="url(#ProcessOnMarker1088)"/></g><g id="ProcessOnG1090" transform="matrix(1.0,0.0,0.0,1.0,699.9030082785671,647.8496147385009)" opacity="1.0"><path id="ProcessOnPath1091" d="M0.0 0.0L160.0 0.0L160.0 40.0L0.0 40.0Z" stroke="none" stroke-width="0.0" stroke-dasharray="none" opacity="1.0" fill="none"/><g id="ProcessOnG1092" transform="matrix(1.0,0.0,0.0,1.0,0.0,10.0)"><text id="ProcessOnText1093" fill="#000000" font-size="16" x="79.0" y="16.4" font-family="微软雅黑" font-weight="normal" font-style="normal" text-decoration="none" family="微软雅黑" text-anchor="middle" size="16">libsecclient.so</text></g></g><g id="ProcessOnG1094"><path id="ProcessOnPath1095" d="M441.06212596988803 712.0L441.06212596988803 756.39641697512L441.0 756.39641697512L441.0 785.5567659727402" stroke="#323232" stroke-width="2.0" stroke-dasharray="none" fill="none" marker-end="url(#ProcessOnMarker1096)"/></g><g id="ProcessOnG1098"><path id="ProcessOnPath1099" d="M587.6745853248049 844.0L615.4440134982519 844.0L615.4440134982519 844.0L627.9773736941991 844.0" stroke="#323232" stroke-width="2.0" stroke-dasharray="none" fill="none" marker-end="url(#ProcessOnMarker1100)"/></g><g id="ProcessOnG1102"><path id="ProcessOnPath1103" d="M643.2134416716989 876.0L615.4440134982519 876.0L615.4440134982519 876.0L602.9106533023047 876.0" stroke="#323232" stroke-width="2.0" stroke-dasharray="none" fill="none" marker-end="url(#ProcessOnMarker1104)"/></g><g id="ProcessOnG1106" transform="matrix(1.0,0.0,0.0,1.0,705.6895666068683,878.7605610912351)" opacity="1.0"><path id="ProcessOnPath1107" d="M0.0 0.0L160.0 0.0L160.0 40.0L0.0 40.0Z" stroke="none" stroke-width="0.0" stroke-dasharray="none" opacity="1.0" fill="none"/><g id="ProcessOnG1108" transform="matrix(1.0,0.0,0.0,1.0,0.0,8.75)"><text id="ProcessOnText1109" fill="#000000" font-size="18" x="79.0" y="18.45" font-family="微软雅黑" font-weight="normal" font-style="normal" text-decoration="none" family="微软雅黑" text-anchor="middle" size="18">libsec.so</text></g></g><g id="ProcessOnG1110"><path id="ProcessOnPath1111" d="M779.9030082785671 703.0856827160007L779.9030082785671 744.3212243443704L779.9030082785672 744.3212243443704L779.9030082785672 785.5567659727402" stroke="#323232" stroke-width="2.0" stroke-dasharray="none" fill="none" marker-start="url(#ProcessOnMarker1112)" marker-end="url(#ProcessOnMarker1114)"/></g><g id="ProcessOnG1116" transform="matrix(1.0,0.0,0.0,1.0,316.22229297912264,736.0)" opacity="1.0"><path id="ProcessOnPath1117" d="M0.0 0.0L160.0 0.0L160.0 40.0L0.0 40.0Z" stroke="none" stroke-width="0.0" stroke-dasharray="none" opacity="1.0" fill="none"/><g id="ProcessOnG1118" transform="matrix(1.0,0.0,0.0,1.0,0.0,11.875)"><text id="ProcessOnText1119" fill="#000000" font-size="13" x="79.0" y="13.325" font-family="微软雅黑" font-weight="normal" font-style="normal" text-decoration="none" family="微软雅黑" text-anchor="middle" size="13">HTTPS请求</text></g></g><g id="ProcessOnG1120" transform="matrix(1.0,0.0,0.0,1.0,671.0,736.0)" opacity="1.0"><path id="ProcessOnPath1121" d="M0.0 0.0L160.0 0.0L160.0 40.0L0.0 40.0Z" stroke="none" stroke-width="0.0" stroke-dasharray="none" opacity="1.0" fill="none"/><g id="ProcessOnG1122" transform="matrix(1.0,0.0,0.0,1.0,0.0,11.875)"><text id="ProcessOnText1123" fill="#000000" font-size="13" x="79.0" y="13.325" font-family="微软雅黑" font-weight="normal" font-style="normal" text-decoration="none" family="微软雅黑" text-anchor="middle" size="13">TLS请求</text></g></g><g id="ProcessOnG1124" transform="matrix(1.0,0.0,0.0,1.0,360.0,878.7605610912351)" opacity="1.0"><path id="ProcessOnPath1125" d="M0.0 0.0L160.0 0.0L160.0 40.0L0.0 40.0Z" stroke="none" stroke-width="0.0" stroke-dasharray="none" opacity="1.0" fill="none"/><g id="ProcessOnG1126" transform="matrix(1.0,0.0,0.0,1.0,0.0,10.0)"><text id="ProcessOnText1127" fill="#000000" font-size="16" x="79.0" y="16.4" font-family="微软雅黑" font-weight="normal" font-style="normal" text-decoration="none" family="微软雅黑" text-anchor="middle" size="16">Python/Flask</text></g></g><g id="ProcessOnG1128" transform="matrix(1.0,0.0,0.0,1.0,722.1555506856727,817.1014271661256)" opacity="1.0"><path id="ProcessOnPath1129" d="M0.0 0.0L127.06803184239128 0.0L127.06803184239128 32.24179972263096L0.0 32.24179972263096Z" stroke="#323232" stroke-width="2.0" stroke-dasharray="none" opacity="1.0" fill="#ffffff"/><g id="ProcessOnG1130" transform="matrix(1.0,0.0,0.0,1.0,10.0,7.995899861315479)"><text id="ProcessOnText1131" fill="#000000" font-size="13" x="52.53401592119564" y="13.325" font-family="微软雅黑" font-weight="normal" font-style="normal" text-decoration="none" family="微软雅黑" text-anchor="middle" size="13">文件上传</text></g></g><g id="ProcessOnG1132" transform="matrix(1.0,0.0,0.0,1.0,722.1555506856727,857.0)" opacity="1.0"><path id="ProcessOnPath1133" d="M0.0 0.0L127.06803184239128 0.0L127.06803184239128 32.24179972263096L0.0 32.24179972263096Z" stroke="#323232" stroke-width="2.0" stroke-dasharray="none" opacity="1.0" fill="#ffffff"/><g id="ProcessOnG1134" transform="matrix(1.0,0.0,0.0,1.0,10.0,7.995899861315479)"><text id="ProcessOnText1135" fill="#000000" font-size="13" x="52.53401592119564" y="13.325" font-family="微软雅黑" font-weight="normal" font-style="normal" text-decoration="none" family="微软雅黑" text-anchor="middle" size="13">文件下载</text></g></g><g id="ProcessOnG1136" transform="matrix(1.0,0.0,0.0,1.0,303.0,815.165878226218)" opacity="1.0"><path id="ProcessOnPath1137" d="M0.0 0.0L280.3254950753418 0.0L280.3254950753418 32.24179972263096L0.0 32.24179972263096Z" stroke="#323232" stroke-width="2.0" stroke-dasharray="none" opacity="1.0" fill="#ffffff"/><g id="ProcessOnG1138" transform="matrix(1.0,0.0,0.0,1.0,10.0,7.995899861315479)"><text id="ProcessOnText1139" fill="#000000" font-size="13" x="129.1627475376709" y="13.325" font-family="微软雅黑" font-weight="normal" font-style="normal" text-decoration="none" family="微软雅黑" text-anchor="middle" size="13">用户管理(登录注册)</text></g></g><g id="ProcessOnG1140" transform="matrix(1.0,0.0,0.0,1.0,165.22345913824256,1110.052679597982)" opacity="1.0"><path id="ProcessOnPath1141" d="M0.0 11.02243989264897L779.7778357097241 11.02243989264897" stroke="#888888" stroke-width="1.0" stroke-dasharray="5.0 2.0" opacity="1.0" fill="none"/><path id="ProcessOnPath1142" d="M0.0 0.0L779.7778357097241 0.0L779.7778357097241 22.04487978529794L0.0 22.04487978529794Z" stroke="none" stroke-width="0.0" stroke-dasharray="0.0 0.0" opacity="1.0" fill="none"/></g><g id="ProcessOnG1143" transform="matrix(1.0,0.0,0.0,1.0,294.0,981.052679597982)" opacity="1.0"><path id="ProcessOnPath1144" d="M0.0 4.0Q0.0 0.0 4.0 0.0L290.0 0.0Q294.0 0.0 294.0 4.0L294.0 116.0Q294.0 120.0 290.0 120.0L4.0 120.0Q0.0 120.0 0.0 116.0Z" stroke="#323232" stroke-width="2.0" stroke-dasharray="none" opacity="1.0" fill="#9933ff"/></g><g id="ProcessOnG1145"><path id="ProcessOnPath1146" d="M441.0 927.1879451275482L441.0 936.4759385750242L441.0 936.4759385750242L441.0 945.7639320225002" stroke="#323232" stroke-width="2.0" stroke-dasharray="none" fill="none" marker-start="url(#ProcessOnMarker1147)" marker-end="url(#ProcessOnMarker1149)"/></g><g id="ProcessOnG1151" transform="matrix(1.0,0.0,0.0,1.0,355.0,1065.760561091235)" opacity="1.0"><path id="ProcessOnPath1152" d="M0.0 0.0L160.0 0.0L160.0 40.0L0.0 40.0Z" stroke="none" stroke-width="0.0" stroke-dasharray="none" opacity="1.0" fill="none"/><g id="ProcessOnG1153" transform="matrix(1.0,0.0,0.0,1.0,0.0,10.0)"><text id="ProcessOnText1154" fill="#000000" font-size="16" x="79.0" y="16.4" font-family="微软雅黑" font-weight="normal" font-style="normal" text-decoration="none" family="微软雅黑" text-anchor="middle" size="16">数据库</text></g></g><g id="ProcessOnG1155" transform="matrix(1.0,0.0,0.0,1.0,327.0,998.6322011978862)" opacity="1.0"><g id="ProcessOnG1157" transform="matrix(1.0,0.0,0.0,1.0,0.0,0.0)"> <path fill="#00BCF2" d="M21.22,75.765c-6.77-0.901-12.765-2.901-16.799-5.605c-1.55-1.039-3.411-2.948-3.975-4.077L0,65.187v-27.6 V9.988l0.429-0.817c1.939-3.691,8.506-6.844,17.38-8.341C22.051,0.114,23.693-0.006,29.038,0c5.265,0.01,7.196,0.163,11.241,0.908 c8.873,1.631,15.433,4.88,17.249,8.546L58,10.41v27.761l-0.001,27.761l-0.425,0.896c-2.004,4.203-10.132,7.712-20.719,8.941 c-2.673,0.31-13.292,0.308-15.636,0V75.765z M35.653,16.106c6.081-0.625,10.83-2.054,12.767-3.842 c0.834-0.772,1.093-1.263,1.093-2.084c0-2.544-5.237-4.773-13.477-5.735c-2.757-0.321-10.684-0.369-13.328-0.078 C15.438,5.161,10.351,6.83,8.845,8.913c-0.492,0.68-0.582,1.624-0.221,2.322c1.07,2.074,5.875,3.904,12.371,4.715 C25.452,16.506,31.169,16.568,35.653,16.106L35.653,16.106z"/>  </g></g><g id="ProcessOnG1158" transform="matrix(1.0,0.0,0.0,1.0,414.1627475376709,998.6322011978862)" opacity="1.0"><g id="ProcessOnG1160" transform="matrix(1.0,0.0,0.0,1.0,0.0,0.0)"> <path fill="#00BCF2" d="M21.22,75.765c-6.77-0.901-12.765-2.901-16.799-5.605c-1.55-1.039-3.411-2.948-3.975-4.077L0,65.187v-27.6 V9.988l0.429-0.817c1.939-3.691,8.506-6.844,17.38-8.341C22.051,0.114,23.693-0.006,29.038,0c5.265,0.01,7.196,0.163,11.241,0.908 c8.873,1.631,15.433,4.88,17.249,8.546L58,10.41v27.761l-0.001,27.761l-0.425,0.896c-2.004,4.203-10.132,7.712-20.719,8.941 c-2.673,0.31-13.292,0.308-15.636,0V75.765z M35.653,16.106c6.081-0.625,10.83-2.054,12.767-3.842 c0.834-0.772,1.093-1.263,1.093-2.084c0-2.544-5.237-4.773-13.477-5.735c-2.757-0.321-10.684-0.369-13.328-0.078 C15.438,5.161,10.351,6.83,8.845,8.913c-0.492,0.68-0.582,1.624-0.221,2.322c1.07,2.074,5.875,3.904,12.371,4.715 C25.452,16.506,31.169,16.568,35.653,16.106L35.653,16.106z"/>  </g></g><g id="ProcessOnG1161" transform="matrix(1.0,0.0,0.0,1.0,499.0,998.6322011978862)" opacity="1.0"><g id="ProcessOnG1163" transform="matrix(1.0,0.0,0.0,1.0,0.0,0.0)"> <path fill="#00BCF2" d="M21.22,75.765c-6.77-0.901-12.765-2.901-16.799-5.605c-1.55-1.039-3.411-2.948-3.975-4.077L0,65.187v-27.6 V9.988l0.429-0.817c1.939-3.691,8.506-6.844,17.38-8.341C22.051,0.114,23.693-0.006,29.038,0c5.265,0.01,7.196,0.163,11.241,0.908 c8.873,1.631,15.433,4.88,17.249,8.546L58,10.41v27.761l-0.001,27.761l-0.425,0.896c-2.004,4.203-10.132,7.712-20.719,8.941 c-2.673,0.31-13.292,0.308-15.636,0V75.765z M35.653,16.106c6.081-0.625,10.83-2.054,12.767-3.842 c0.834-0.772,1.093-1.263,1.093-2.084c0-2.544-5.237-4.773-13.477-5.735c-2.757-0.321-10.684-0.369-13.328-0.078 C15.438,5.161,10.351,6.83,8.845,8.913c-0.492,0.68-0.582,1.624-0.221,2.322c1.07,2.074,5.875,3.904,12.371,4.715 C25.452,16.506,31.169,16.568,35.653,16.106L35.653,16.106z"/>  </g></g><g id="ProcessOnG1164" transform="matrix(1.0,0.0,0.0,1.0,638.6895666068683,981.052679597982)" opacity="1.0"><path id="ProcessOnPath1165" d="M0.0 4.0Q0.0 0.0 4.0 0.0L290.0 0.0Q294.0 0.0 294.0 4.0L294.0 116.0Q294.0 120.0 290.0 120.0L4.0 120.0Q0.0 120.0 0.0 116.0Z" stroke="#323232" stroke-width="2.0" stroke-dasharray="none" opacity="1.0" fill="#9933ff"/></g><g id="ProcessOnG1166" transform="matrix(1.0,0.0,0.0,1.0,757.1895666068683,1002.052679597982)" opacity="1.0"><g id="ProcessOnG1168" transform="matrix(1.0,0.0,0.0,1.0,0.0,0.0)"> <path fill="#00BCF2" d="M41.283,77.717c-3.712-0.65-6.525-2.131-6.971-3.661c-0.106-0.37-0.146-4.084-0.112-11.274l0.043-10.721 l0.44-0.574c2.078-2.721,9.775-4.028,15.879-2.697c3.137,0.682,5.57,2.123,5.979,3.536c0.091,0.319,0.147,4.603,0.146,11 c0,9.964-0.02,10.513-0.294,11.12c-0.676,1.489-3.451,2.768-7.247,3.34C47.091,78.098,43.253,78.063,41.283,77.717L41.283,77.717z M48.032,54.529c2.313-0.191,4.591-0.95,5.081-1.691c0.861-1.316-1.658-2.511-5.898-2.802c-5.038-0.345-9.678,0.743-9.678,2.268 c0,0.783,0.959,1.376,3.023,1.864C42.699,54.674,44.937,54.782,48.032,54.529L48.032,54.529z M1.479,71.738 C1.238,71.666,0.9,71.482,0.73,71.33c-0.767-0.679-0.729,1.123-0.729-35.459C0.001-1.77-0.07,0.931,0.95,0.309 C1.453,0.002,1.646,0,28.499,0c26.55,0,27.054,0,27.532,0.3c1.04,0.631,0.968-1.201,0.968,24.319 c0,12.708-0.034,23.108-0.072,23.108c-0.04,0-0.513-0.244-1.054-0.54c-2.325-1.274-6.378-2.217-9.558-2.217 c-0.614,0-1.114-0.033-1.114-0.076c0-0.039,0.469-0.694,1.046-1.451c2.603-3.423,4.099-7.384,4.486-11.872 c0.466-5.384-1.133-10.952-4.396-15.311c-6.03-8.053-16.515-11.133-25.893-7.61c-3.894,1.463-7.402,4.132-10.044,7.639 C6.411,21.586,5,28.694,6.619,35.335c0.915,3.752,3.269,7.91,5.929,10.469l0.627,0.603l2.721-2.68 c3.16-3.113,3.595-3.388,5.478-3.473c0.985-0.04,1.405,0.018,2.141,0.29c1.901,0.715,3.295,2.648,3.422,4.759 c0.078,1.278-0.043,1.67-1.388,4.444c-0.6,1.237-1.061,2.284-1.023,2.322c0.153,0.152,3.991,0.364,5.164,0.284l1.262-0.087 l-0.037,9.775l-0.039,9.771l-14.48,0.028C8.433,71.858,1.721,71.812,1.479,71.738L1.479,71.738z M11.801,67.979 c1.055-0.313,2.205-1.052,2.985-1.917c0.444-0.492,1.92-3.3,5.346-10.169c4.464-8.954,4.733-9.538,4.733-10.326 c0-1.278-0.637-2.328-1.761-2.904c-0.813-0.414-2.184-0.392-3.011,0.055c-0.396,0.213-3.447,3.194-7.953,7.77 c-6.602,6.704-7.364,7.529-7.839,8.488c-0.446,0.9-0.537,1.269-0.592,2.382c-0.104,2.102,0.497,3.687,1.915,5.05 C7.316,68.03,9.637,68.622,11.801,67.979L11.801,67.979z M9.063,64.549c-2.378-1.008-2.573-4.207-0.326-5.353 c0.994-0.503,2.441-0.315,3.265,0.43c1.288,1.161,1.083,3.61-0.383,4.58C10.953,64.646,9.69,64.815,9.063,64.549L9.063,64.549z M4.515,4.83c0.56-0.234,1.001-0.906,1.001-1.522c0-0.503-0.667-1.274-1.203-1.393C3.384,1.712,2.452,2.447,2.452,3.381 c0,0.656,0.571,1.453,1.115,1.559c0.188,0.036,0.36,0.075,0.384,0.086C3.975,5.037,4.229,4.949,4.515,4.83L4.515,4.83z M53.39,4.83 c0.509-0.212,1.001-0.896,1.001-1.39c0-0.458-0.464-1.142-0.946-1.39c-0.395-0.204-0.586-0.219-1.054-0.078 c-0.699,0.209-1.063,0.73-1.063,1.519c0,0.659,0.521,1.333,1.124,1.45c0.182,0.035,0.353,0.075,0.376,0.086 C52.849,5.037,53.105,4.949,53.39,4.83L53.39,4.83z M26.278,40.296c-0.592-0.13-1.729-0.55-2.53-0.937 c-2.603-1.251-4.731-3.792-5.612-6.702c-0.208-0.689-0.277-1.411-0.272-2.905c0-1.722,0.058-2.147,0.403-3.179 c1.114-3.338,3.673-5.895,6.938-6.933c5.207-1.655,10.922,1.058,12.997,6.171c0.542,1.342,0.741,2.428,0.735,4.059 c-0.02,4.828-3.26,9.038-7.91,10.277C29.666,40.512,27.556,40.579,26.278,40.296L26.278,40.296z M30.49,38.077 c1.263-0.288,2.85-1.192,3.877-2.205c2.204-2.179,3.033-5.214,2.253-8.254c-0.396-1.542-1.061-2.697-2.216-3.833 c-1.659-1.637-3.489-2.372-5.905-2.372c-2.393,0-4.261,0.741-5.842,2.317c-4.631,4.612-2.596,12.565,3.651,14.28 C27.199,38.256,29.543,38.292,30.49,38.077L30.49,38.077z M28.039,36.667c-0.578-0.292-0.84-0.938-0.605-1.502 c0.342-0.823,1.28-1.006,1.915-0.37c0.468,0.468,0.478,1.021,0.032,1.515C28.936,36.795,28.517,36.906,28.039,36.667L28.039,36.667z M23.952,34.952c-1.13-0.475-0.739-2.227,0.496-2.212c0.889,0.011,1.409,0.804,1.063,1.625 C25.254,34.976,24.598,35.223,23.952,34.952L23.952,34.952z M32.074,34.952c-1.139-0.477-0.739-2.218,0.505-2.218 c0.858,0,1.409,1.03,0.977,1.832C33.324,34.999,32.623,35.184,32.074,34.952z M27.272,32.95c-1.347-0.581-2.278-2.151-2.088-3.525 c0.115-0.846,0.397-1.394,1.032-2.014c1.977-1.931,5.353-0.651,5.621,2.129C32.069,31.946,29.463,33.894,27.272,32.95z M22.293,30.879c-0.783-0.438-0.925-1.29-0.314-1.899c0.746-0.746,1.922-0.233,1.922,0.836C23.902,30.69,23.01,31.279,22.293,30.879 L22.293,30.879z M33.501,30.735c-0.314-0.244-0.407-0.452-0.407-0.907c0-0.456,0.093-0.662,0.407-0.907 c0.219-0.173,0.556-0.317,0.744-0.317c0.189,0,0.523,0.143,0.745,0.317c0.312,0.245,0.403,0.453,0.403,0.907 s-0.092,0.663-0.403,0.907c-0.222,0.176-0.556,0.317-0.745,0.317C34.057,31.051,33.718,30.911,33.501,30.735z M23.622,26.568 c-0.58-0.617-0.415-1.55,0.331-1.863c1.293-0.543,2.32,1.165,1.207,2.008C24.735,27.035,23.996,26.964,23.622,26.568L23.622,26.568z M31.745,26.568c-0.583-0.617-0.417-1.55,0.329-1.863c0.548-0.231,1.249-0.048,1.483,0.388 C34.212,26.311,32.677,27.561,31.745,26.568z M27.874,25.043c-0.953-0.73-0.522-2.149,0.651-2.149c0.575,0,1.199,0.633,1.199,1.214 C29.725,24.935,28.522,25.542,27.874,25.043L27.874,25.043z"/>  </g><g id="ProcessOnG1169" transform="matrix(1.0,0.0,0.0,1.0,-20.0,84.875)"><text id="ProcessOnText1170" fill="#000000" font-size="13" x="47.5" y="13.325" font-family="微软雅黑" font-weight="normal" font-style="normal" text-decoration="none" family="微软雅黑" text-anchor="middle" size="13">磁盘</text></g></g><g id="ProcessOnG1171"><path id="ProcessOnPath1172" d="M779.9030082785671 945.7639320225002L779.9030082785671 936.4759385750242L779.9030082785671 936.4759385750242L779.9030082785671 927.1879451275482" stroke="#323232" stroke-width="2.0" stroke-dasharray="none" fill="none" marker-start="url(#ProcessOnMarker1173)" marker-end="url(#ProcessOnMarker1175)"/></g><g id="ProcessOnG1177" transform="matrix(1.0,0.0,0.0,1.0,171.9987051520335,1014.2439956567953)" opacity="1.0"><path id="ProcessOnPath1178" d="M0.0 0.0L104.92625847754515 0.0L104.92625847754515 44.77641108218172L0.0 44.77641108218172Z" stroke="none" stroke-width="0.0" stroke-dasharray="none" opacity="1.0" fill="none"/><g id="ProcessOnG1179" transform="matrix(1.0,0.0,0.0,1.0,0.0,14.263205541090858)"><text id="ProcessOnText1180" fill="#000000" font-size="13" x="51.463129238772574" y="13.325" font-family="微软雅黑" font-weight="normal" font-style="normal" text-decoration="none" family="微软雅黑" text-anchor="middle" size="13">储存</text></g></g><g id="ProcessOnG1181" transform="matrix(1.0,0.0,0.0,1.0,50.0,360.0)" opacity="1.0"><path id="ProcessOnPath1182" d="M108.0 0.0Q99.0 0.0 99.0 9.0L99.0 172.98052730481015Q99.0 181.98052730481015 86.0 181.98052730481015Q99.0 181.98052730481015 99.0 190.98052730481015L99.0 354.9610546096203Q99.0 363.9610546096203 108.0 363.9610546096203" stroke="#323232" stroke-width="2.0" stroke-dasharray="none" opacity="1.0" fill="none"/><path id="ProcessOnPath1183" d="M0.0 0.0L108.0 0.0L108.0 363.9610546096203L0.0 363.9610546096203Z" stroke="none" stroke-width="0.0" stroke-dasharray="none" opacity="1.0" fill="none"/><g id="ProcessOnG1184" transform="matrix(1.0,0.0,0.0,1.0,0.0,161.98052730481015)"><text id="ProcessOnText1185" fill="#000000" font-size="16" x="79.0" y="16.4" font-family="微软雅黑" font-weight="normal" font-style="normal" text-decoration="none" family="微软雅黑" text-anchor="end" size="16">zuolin</text><text id="ProcessOnText1186" fill="#000000" font-size="16" x="79.0" y="36.4" font-family="微软雅黑" font-weight="normal" font-style="normal" text-decoration="none" family="微软雅黑" text-anchor="end" size="16">client</text></g></g><g id="ProcessOnG1187" transform="matrix(1.0,0.0,0.0,1.0,957.0,608.0)" opacity="1.0"><path id="ProcessOnPath1188" d="M0.0 428.0Q9.0 428.0 9.0 419.0L9.0 223.0Q9.0 214.0 22.0 214.0Q9.0 214.0 9.0 205.0L9.0 9.0Q9.0 0.0 0.0 0.0" stroke="#323232" stroke-width="2.0" stroke-dasharray="none" opacity="1.0" fill="none"/><path id="ProcessOnPath1189" d="M0.0 0.0L116.0 0.0L116.0 428.0L0.0 428.0Z" stroke="none" stroke-width="0.0" stroke-dasharray="none" opacity="1.0" fill="none"/><g id="ProcessOnG1190" transform="matrix(1.0,0.0,0.0,1.0,27.0,184.0)"><text id="ProcessOnText1191" fill="#000000" font-size="16" x="0.0" y="16.4" font-family="微软雅黑" font-weight="normal" font-style="normal" text-decoration="none" family="微软雅黑" text-anchor="start" size="16">protobuf</text><text id="ProcessOnText1192" fill="#000000" font-size="16" x="0.0" y="36.4" font-family="微软雅黑" font-weight="normal" font-style="normal" text-decoration="none" family="微软雅黑" text-anchor="start" size="16">file</text><text id="ProcessOnText1193" fill="#000000" font-size="16" x="0.0" y="56.4" font-family="微软雅黑" font-weight="normal" font-style="normal" text-decoration="none" family="微软雅黑" text-anchor="start" size="16">transfer</text></g></g><g id="ProcessOnG1194" transform="matrix(1.0,0.0,0.0,1.0,50.0,847.4076779488489)" opacity="1.0"><path id="ProcessOnPath1195" d="M103.0 0.0Q94.0 0.0 94.0 9.0L94.0 97.88028054561755Q94.0 106.88028054561755 81.0 106.88028054561755Q94.0 106.88028054561755 94.0 115.88028054561755L94.0 204.7605610912351Q94.0 213.7605610912351 103.0 213.7605610912351" stroke="#323232" stroke-width="2.0" stroke-dasharray="none" opacity="1.0" fill="none"/><path id="ProcessOnPath1196" d="M0.0 0.0L103.0 0.0L103.0 213.7605610912351L0.0 213.7605610912351Z" stroke="none" stroke-width="0.0" stroke-dasharray="none" opacity="1.0" fill="none"/><g id="ProcessOnG1197" transform="matrix(1.0,0.0,0.0,1.0,0.0,96.88028054561755)"><text id="ProcessOnText1198" fill="#000000" font-size="16" x="74.0" y="16.4" font-family="微软雅黑" font-weight="normal" font-style="normal" text-decoration="none" family="微软雅黑" text-anchor="end" size="16">zuolin</text></g></g></g></g></svg>